<svg xmlns="http://www.w3.org/2000/svg" xmlns:xlink="http://www.w3.org/1999/xlink" width="550" height="130" viewBox="0 0 550 130">
  <defs>
    <clipPath id="clip-Монтажная_область_1">
      <rect width="550" height="130"/>
    </clipPath>
  </defs>
  <g id="Монтажная_область_1" data-name="Монтажная область – 1" clip-path="url(#clip-Монтажная_область_1)">
    <path id="logo" d="M22519.092,9243.423a.992.992,0,0,1-.328-.091.3.3,0,0,1-.164-.152.376.376,0,0,1-.018-.2l4.779-22.787a.451.451,0,0,1,.283-.357,2.22,2.22,0,0,1,.828-.113,3.451,3.451,0,0,1,.465.028,1.033,1.033,0,0,1,.289.085.237.237,0,0,1,.143.142.439.439,0,0,1,.006.216l-.691,3.334a4.457,4.457,0,0,1,.885-1.3,8.551,8.551,0,0,1,1.529-1.3,8.869,8.869,0,0,1,1.99-1,6.375,6.375,0,0,1,2.217-.4,5.556,5.556,0,0,1,2.371.447,4.124,4.124,0,0,1,1.553,1.22,4.726,4.726,0,0,1,.852,1.809,9.432,9.432,0,0,1,.254,2.233,15.164,15.164,0,0,1-.2,2.274,16.814,16.814,0,0,1-.635,2.6,14.849,14.849,0,0,1-1.129,2.6,10.031,10.031,0,0,1-1.672,2.262,7.72,7.72,0,0,1-2.281,1.6,6.907,6.907,0,0,1-2.953.6,7.078,7.078,0,0,1-1.609-.17,5.916,5.916,0,0,1-1.328-.477,6.413,6.413,0,0,1-1.111-.72,8.927,8.927,0,0,1-.941-.9l-1.672,8.073a.432.432,0,0,1-.086.2.457.457,0,0,1-.2.152,1.16,1.16,0,0,1-.346.091,4.763,4.763,0,0,1-.557.028A4.229,4.229,0,0,1,22519.092,9243.423Zm9.6-21.472a7.846,7.846,0,0,0-2.137,1.633,11.336,11.336,0,0,0-1.758,2.5,12.005,12.005,0,0,0-1.135,3.2l-.691,3.277a7.741,7.741,0,0,0,2.154,2.087,4.827,4.827,0,0,0,2.551.691,4.077,4.077,0,0,0,2.014-.5,5.748,5.748,0,0,0,1.6-1.332,8.843,8.843,0,0,0,1.2-1.889,14.209,14.209,0,0,0,.84-2.171,15.5,15.5,0,0,0,.482-2.188,14.681,14.681,0,0,0,.146-1.923,7.34,7.34,0,0,0-.158-1.576,3.829,3.829,0,0,0-.506-1.259,2.411,2.411,0,0,0-.924-.833,3.031,3.031,0,0,0-1.406-.295A4.962,4.962,0,0,0,22528.691,9221.951Zm-231.164,21.461a.8.8,0,0,1-.379-.137.277.277,0,0,1-.125-.249.675.675,0,0,1,.2-.368l4.779-5.789-2.822-16.047c-.029-.142-.045-.261-.057-.356s-.023-.176-.023-.232a.529.529,0,0,1,.051-.244.292.292,0,0,1,.17-.153,1.261,1.261,0,0,1,.336-.085,4.741,4.741,0,0,1,.537-.028,4.792,4.792,0,0,1,.563.028,1.307,1.307,0,0,1,.334.085.354.354,0,0,1,.176.153.573.573,0,0,1,.074.2l2.449,14.334h.039a39.277,39.277,0,0,0,2.342-3.465q1.046-1.743,1.91-3.538c.574-1.2,1.111-2.4,1.6-3.623s.953-2.455,1.395-3.708a.515.515,0,0,1,.119-.216.558.558,0,0,1,.238-.142,1.8,1.8,0,0,1,.387-.085,5.54,5.54,0,0,1,.588-.028,2.324,2.324,0,0,1,.84.1c.131.057.2.136.2.232a1.228,1.228,0,0,1-.041.323,1.71,1.71,0,0,1-.09.289c-.426,1.083-.885,2.217-1.367,3.407s-1.055,2.438-1.711,3.748-1.441,2.688-2.342,4.14a52.625,52.625,0,0,1-3.277,4.6l-5.047,6.418a1.072,1.072,0,0,1-.2.188,1.211,1.211,0,0,1-.285.147,2.061,2.061,0,0,1-.414.1,3.349,3.349,0,0,1-.561.039A3.46,3.46,0,0,1,22297.527,9243.412Zm-77.605.011a.915.915,0,0,1-.316-.091.32.32,0,0,1-.152-.152.376.376,0,0,1-.018-.2l1.3-6.22c.072-.334.158-.675.242-1.021s.182-.675.285-1,.191-.629.283-.918.17-.545.244-.76a5.172,5.172,0,0,1-.953,1.354,8.992,8.992,0,0,1-1.57,1.333,9.362,9.362,0,0,1-2,1.021,6.414,6.414,0,0,1-2.223.4,5.849,5.849,0,0,1-2.268-.4,4.057,4.057,0,0,1-1.561-1.157,4.788,4.788,0,0,1-.9-1.8,8.617,8.617,0,0,1-.295-2.353,14.933,14.933,0,0,1,.188-2.172,16.945,16.945,0,0,1,.611-2.58,16.221,16.221,0,0,1,1.105-2.608,9.729,9.729,0,0,1,1.662-2.308,7.947,7.947,0,0,1,2.3-1.644,6.933,6.933,0,0,1,3-.618,5.918,5.918,0,0,1,2.932.657,7.735,7.735,0,0,1,2.148,1.774l.4-1.769a.489.489,0,0,1,.33-.357,2.286,2.286,0,0,1,.816-.113,3.616,3.616,0,0,1,.471.028,1,1,0,0,1,.295.091.33.33,0,0,1,.131.153.481.481,0,0,1,.01.2l-4.746,22.787a.955.955,0,0,1-.1.2.463.463,0,0,1-.209.152,1.248,1.248,0,0,1-.357.091,4.666,4.666,0,0,1-.557.028A4.369,4.369,0,0,1,22219.922,9243.423Zm-3.355-21.518a5.816,5.816,0,0,0-1.633,1.418,9.417,9.417,0,0,0-1.186,1.973,15.12,15.12,0,0,0-.787,2.212,15.439,15.439,0,0,0-.432,2.126,12.987,12.987,0,0,0-.131,1.718,4.865,4.865,0,0,0,.76,2.994,2.64,2.64,0,0,0,2.229.992,4.977,4.977,0,0,0,2.279-.59,7.728,7.728,0,0,0,2.137-1.639,11.255,11.255,0,0,0,1.748-2.506,12.319,12.319,0,0,0,1.139-3.2l.7-3.26a7.737,7.737,0,0,0-2.154-2.087,4.837,4.837,0,0,0-2.551-.691A4.164,4.164,0,0,0,22216.566,9221.905Zm364.146,14.9a5.177,5.177,0,0,1-2.006-1.111,4.466,4.466,0,0,1-1.191-1.843,7.683,7.683,0,0,1-.4-2.592,14.572,14.572,0,0,1,.969-5.108,12.913,12.913,0,0,1,1.287-2.506,9.659,9.659,0,0,1,1.883-2.109,8.763,8.763,0,0,1,5.744-2.007,7.462,7.462,0,0,1,2.518.368,5.077,5.077,0,0,1,1.684.936,3.484,3.484,0,0,1,.941,1.253,3.328,3.328,0,0,1,.295,1.315,4.047,4.047,0,0,1-.6,2.172,4.649,4.649,0,0,1-1.871,1.649,11.161,11.161,0,0,1-3.277,1.055,26.385,26.385,0,0,1-4.8.369h-2.166c-.086.459-.146.9-.187,1.338s-.057.834-.057,1.208a3.712,3.712,0,0,0,4.293,4.145,12.011,12.011,0,0,0,2.125-.17,15.133,15.133,0,0,0,1.629-.374c.459-.131.826-.256,1.111-.369a1.993,1.993,0,0,1,.572-.17.235.235,0,0,1,.221.119.656.656,0,0,1,.063.295,1.931,1.931,0,0,1-.029.277,2.157,2.157,0,0,1-.084.363,2.543,2.543,0,0,1-.148.38,1.161,1.161,0,0,1-.227.312,2.317,2.317,0,0,1-.781.426,8.88,8.88,0,0,1-1.311.368q-.747.161-1.633.272a14.2,14.2,0,0,1-1.752.107A9.775,9.775,0,0,1,22580.713,9236.807Zm3.7-14.991a6.3,6.3,0,0,0-1.871,1.207,7.5,7.5,0,0,0-1.383,1.758,11.6,11.6,0,0,0-.936,2.1h2.092a22.728,22.728,0,0,0,3.748-.261,8.829,8.829,0,0,0,2.381-.715,3.043,3.043,0,0,0,1.26-1.037,2.309,2.309,0,0,0,.367-1.236,1.941,1.941,0,0,0-.85-1.644,3.975,3.975,0,0,0-2.387-.624A6.142,6.142,0,0,0,22584.41,9221.815Zm-21.83,13.925a5.775,5.775,0,0,1-1.439-4.28,16.21,16.21,0,0,1,.193-2.4,15.5,15.5,0,0,1,.652-2.631,14.328,14.328,0,0,1,1.168-2.568,9.4,9.4,0,0,1,1.746-2.212,8.183,8.183,0,0,1,2.414-1.542,8.028,8.028,0,0,1,3.143-.572,8.5,8.5,0,0,1,1.428.113,8.086,8.086,0,0,1,1.311.329,5.573,5.573,0,0,1,1.129.521,6.274,6.274,0,0,1,.811.572,1.565,1.565,0,0,1,.357.42.955.955,0,0,1,.066.352,2.508,2.508,0,0,1-.051.5,2.226,2.226,0,0,1-.141.459.878.878,0,0,1-.244.329.519.519,0,0,1-.34.13.812.812,0,0,1-.533-.289,6.313,6.313,0,0,0-.795-.641,5.6,5.6,0,0,0-1.27-.641,5.7,5.7,0,0,0-1.973-.289,5.153,5.153,0,0,0-2.336.516,5.978,5.978,0,0,0-1.758,1.332,7.566,7.566,0,0,0-1.242,1.866,13.39,13.39,0,0,0-.8,2.12,15.754,15.754,0,0,0-.432,2.069,14.283,14.283,0,0,0-.129,1.741,4.643,4.643,0,0,0,.939,3.158,3.5,3.5,0,0,0,2.768,1.06,6.92,6.92,0,0,0,2.24-.317,7.945,7.945,0,0,0,1.588-.7,10.906,10.906,0,0,0,1.064-.7,1.212,1.212,0,0,1,.7-.317.269.269,0,0,1,.217.113.607.607,0,0,1,.084.352,3.112,3.112,0,0,1-.027.38,3.926,3.926,0,0,1-.086.442,2.3,2.3,0,0,1-.152.426,1.488,1.488,0,0,1-.318.413,5.422,5.422,0,0,1-.8.562,8.569,8.569,0,0,1-1.326.618,10.918,10.918,0,0,1-1.639.459,8.776,8.776,0,0,1-1.826.182A5.923,5.923,0,0,1,22562.58,9235.74Zm-97.873,1.111a3.544,3.544,0,0,1-1.373-.89,3.324,3.324,0,0,1-.742-1.355,6.043,6.043,0,0,1-.227-1.718,9.634,9.634,0,0,1,.072-1.191c.051-.408.119-.827.211-1.247l2.125-10.257a.426.426,0,0,1,.092-.2.685.685,0,0,1,.221-.153,1.484,1.484,0,0,1,.363-.091,5.052,5.052,0,0,1,.549-.028,4.528,4.528,0,0,1,.527.028,1.063,1.063,0,0,1,.318.091.305.305,0,0,1,.17.352l-2.127,10.257c-.078.352-.135.709-.18,1.071a8.929,8.929,0,0,0-.068,1.129,4.672,4.672,0,0,0,.125,1.094,2.3,2.3,0,0,0,.412.862,1.862,1.862,0,0,0,.756.567,2.913,2.913,0,0,0,1.139.2,4.956,4.956,0,0,0,2.273-.584,7.884,7.884,0,0,0,2.139-1.633,11.334,11.334,0,0,0,1.752-2.5,12.736,12.736,0,0,0,1.139-3.181l1.525-7.286a.408.408,0,0,1,.092-.2.7.7,0,0,1,.215-.153,1.615,1.615,0,0,1,.369-.091,5.02,5.02,0,0,1,.543-.028,4.8,4.8,0,0,1,.551.028,1.048,1.048,0,0,1,.316.091.3.3,0,0,1,.143.153.45.45,0,0,1,.012.2l-3.426,16.318a.489.489,0,0,1-.09.192.4.4,0,0,1-.193.147,1.751,1.751,0,0,1-.34.091,3.065,3.065,0,0,1-.488.034,2.7,2.7,0,0,1-.471-.034,1.08,1.08,0,0,1-.295-.091.3.3,0,0,1-.141-.147.272.272,0,0,1,0-.192l.658-3.283a4.337,4.337,0,0,1-.885,1.287,8.485,8.485,0,0,1-1.525,1.293,9.308,9.308,0,0,1-1.957.98,6.359,6.359,0,0,1-2.16.386A6.031,6.031,0,0,1,22464.707,9236.852Zm-138.4-.182a4.068,4.068,0,0,1-1.543-1.326,4.854,4.854,0,0,1-.771-1.837,10.077,10.077,0,0,1-.209-2.047,15.031,15.031,0,0,1,.188-2.189,15.922,15.922,0,0,1,.623-2.579,16.506,16.506,0,0,1,1.111-2.6,9.855,9.855,0,0,1,1.668-2.3,7.808,7.808,0,0,1,2.295-1.644,6.872,6.872,0,0,1,2.982-.618,5.951,5.951,0,0,1,2.938.657,7.769,7.769,0,0,1,2.143,1.774l.4-1.769a.483.483,0,0,1,.328-.357,2.286,2.286,0,0,1,.816-.113,3.616,3.616,0,0,1,.471.028.941.941,0,0,1,.295.091.3.3,0,0,1,.131.153.423.423,0,0,1,.006.2l-3.4,16.318a.516.516,0,0,1-.3.357,2.233,2.233,0,0,1-.828.107,2.694,2.694,0,0,1-.465-.028,1.106,1.106,0,0,1-.289-.079.307.307,0,0,1-.152-.143.336.336,0,0,1,0-.215l.7-3.356a4.7,4.7,0,0,1-.885,1.3,8.355,8.355,0,0,1-1.531,1.31,9.468,9.468,0,0,1-1.99,1.01,6.407,6.407,0,0,1-2.217.4A5.389,5.389,0,0,1,22326.3,9236.67Zm4.094-14.793a5.816,5.816,0,0,0-1.611,1.355,9.139,9.139,0,0,0-1.2,1.9,15.06,15.06,0,0,0-.816,2.178,16.317,16.317,0,0,0-.471,2.171,13.335,13.335,0,0,0-.148,1.871,8.43,8.43,0,0,0,.113,1.39,3.835,3.835,0,0,0,.438,1.281,2.719,2.719,0,0,0,.918.947,2.827,2.827,0,0,0,1.52.368,4.977,4.977,0,0,0,2.279-.59,7.679,7.679,0,0,0,2.139-1.639,11.314,11.314,0,0,0,1.746-2.506,12.248,12.248,0,0,0,1.139-3.2l.7-3.26a7.659,7.659,0,0,0-2.154-2.087,4.837,4.837,0,0,0-2.551-.691A4.117,4.117,0,0,0,22330.4,9221.877Zm-78.779,14.793a4.091,4.091,0,0,1-1.541-1.326,4.917,4.917,0,0,1-.771-1.837,10.358,10.358,0,0,1-.205-2.047,15.031,15.031,0,0,1,.188-2.189,15.9,15.9,0,0,1,.619-2.579,16.879,16.879,0,0,1,1.111-2.6,10.019,10.019,0,0,1,1.666-2.3,7.842,7.842,0,0,1,2.3-1.644,6.872,6.872,0,0,1,2.982-.618,5.957,5.957,0,0,1,2.938.657,7.8,7.8,0,0,1,2.143,1.774l.4-1.769a.5.5,0,0,1,.328-.357,2.308,2.308,0,0,1,.822-.113,3.662,3.662,0,0,1,.471.028.884.884,0,0,1,.289.091.3.3,0,0,1,.131.153.45.45,0,0,1,.012.2l-3.408,16.318a.511.511,0,0,1-.3.357,2.228,2.228,0,0,1-.826.107,2.645,2.645,0,0,1-.461-.028,1.113,1.113,0,0,1-.295-.079.325.325,0,0,1-.152-.143.336.336,0,0,1,0-.215l.7-3.356a4.7,4.7,0,0,1-.885,1.3,8.291,8.291,0,0,1-1.531,1.31,9.515,9.515,0,0,1-1.984,1.01,6.447,6.447,0,0,1-2.223.4A5.394,5.394,0,0,1,22251.617,9236.67Zm4.094-14.793a5.836,5.836,0,0,0-1.609,1.355,8.967,8.967,0,0,0-1.191,1.9,14.863,14.863,0,0,0-.822,2.178,16.957,16.957,0,0,0-.471,2.171,14.25,14.25,0,0,0-.146,1.871,8.223,8.223,0,0,0,.113,1.39,3.714,3.714,0,0,0,.441,1.281,2.657,2.657,0,0,0,.914.947,2.818,2.818,0,0,0,1.52.368,4.977,4.977,0,0,0,2.279-.59,7.672,7.672,0,0,0,2.137-1.639,11.4,11.4,0,0,0,1.752-2.506,12.459,12.459,0,0,0,1.135-3.2l.7-3.26a7.685,7.685,0,0,0-2.154-2.087,4.823,4.823,0,0,0-2.547-.691A4.144,4.144,0,0,0,22255.711,9221.877Zm-23.15,14.975a3.551,3.551,0,0,1-1.371-.89,3.351,3.351,0,0,1-.744-1.355,6.113,6.113,0,0,1-.227-1.718,9.644,9.644,0,0,1,.074-1.191c.051-.408.119-.827.209-1.247l2.127-10.257a.469.469,0,0,1,.092-.2.664.664,0,0,1,.221-.153,1.484,1.484,0,0,1,.363-.091,5.052,5.052,0,0,1,.549-.028,4.528,4.528,0,0,1,.527.028,1.063,1.063,0,0,1,.318.091.393.393,0,0,1,.152.153.378.378,0,0,1,.018.2l-2.127,10.257q-.111.527-.182,1.071a10.681,10.681,0,0,0-.062,1.129,4.788,4.788,0,0,0,.119,1.094,2.337,2.337,0,0,0,.414.862,1.91,1.91,0,0,0,.754.567,2.93,2.93,0,0,0,1.141.2,4.979,4.979,0,0,0,2.279-.584,7.912,7.912,0,0,0,2.131-1.633,11.017,11.017,0,0,0,1.752-2.5,12.437,12.437,0,0,0,1.141-3.181l1.525-7.286a.489.489,0,0,1,.09-.2.709.709,0,0,1,.217-.153,1.623,1.623,0,0,1,.367-.091,5.087,5.087,0,0,1,.545-.028,4.8,4.8,0,0,1,.551.028,1.066,1.066,0,0,1,.316.091.3.3,0,0,1,.143.153.423.423,0,0,1,.012.2l-3.426,16.318a.506.506,0,0,1-.084.192.464.464,0,0,1-.2.147,1.677,1.677,0,0,1-.34.091,3.065,3.065,0,0,1-.488.034,2.737,2.737,0,0,1-.471-.034,1.127,1.127,0,0,1-.295-.091.29.29,0,0,1-.141-.147.272.272,0,0,1,0-.192l.662-3.283a4.49,4.49,0,0,1-.885,1.287,8.678,8.678,0,0,1-1.523,1.293,9.216,9.216,0,0,1-1.963.98,6.367,6.367,0,0,1-2.16.386A6.058,6.058,0,0,1,22232.561,9236.852Zm-78.012,0a3.5,3.5,0,0,1-1.373-.89,3.4,3.4,0,0,1-.748-1.355,6.265,6.265,0,0,1-.221-1.718,9.634,9.634,0,0,1,.072-1.191c.053-.408.119-.827.205-1.247l2.127-10.257a.478.478,0,0,1,.1-.2.723.723,0,0,1,.215-.153,1.589,1.589,0,0,1,.369-.091,5.03,5.03,0,0,1,.545-.028,4.427,4.427,0,0,1,.527.028,1.058,1.058,0,0,1,.322.091.318.318,0,0,1,.17.352l-2.131,10.257c-.074.352-.131.709-.176,1.071a8.929,8.929,0,0,0-.068,1.129,4.672,4.672,0,0,0,.125,1.094,2.194,2.194,0,0,0,.414.862,1.805,1.805,0,0,0,.754.567,2.913,2.913,0,0,0,1.139.2,4.975,4.975,0,0,0,2.273-.584,7.884,7.884,0,0,0,2.139-1.633,11.205,11.205,0,0,0,1.752-2.5,12.892,12.892,0,0,0,1.139-3.181l1.52-7.286a.508.508,0,0,1,.1-.2.654.654,0,0,1,.215-.153,1.54,1.54,0,0,1,.369-.091,4.936,4.936,0,0,1,.543-.028,4.607,4.607,0,0,1,.545.028,1.056,1.056,0,0,1,.324.091.305.305,0,0,1,.141.153.378.378,0,0,1,.006.2l-3.424,16.318a.433.433,0,0,1-.086.192.424.424,0,0,1-.193.147,1.751,1.751,0,0,1-.34.091,3.117,3.117,0,0,1-.492.034,2.769,2.769,0,0,1-.471-.034,1.052,1.052,0,0,1-.289-.091.279.279,0,0,1-.143-.147.272.272,0,0,1,0-.192l.658-3.283a4.49,4.49,0,0,1-.885,1.287,8.485,8.485,0,0,1-1.525,1.293,9.308,9.308,0,0,1-1.957.98,6.359,6.359,0,0,1-2.16.386A6.031,6.031,0,0,1,22154.549,9236.852Zm-74.883-.182a4.1,4.1,0,0,1-1.543-1.326,4.917,4.917,0,0,1-.771-1.837,10.363,10.363,0,0,1-.209-2.047,14.558,14.558,0,0,1,.191-2.189,15.9,15.9,0,0,1,.619-2.579,16.879,16.879,0,0,1,1.111-2.6,9.9,9.9,0,0,1,1.666-2.3,7.842,7.842,0,0,1,2.3-1.644,6.872,6.872,0,0,1,2.982-.618,5.957,5.957,0,0,1,2.938.657,7.8,7.8,0,0,1,2.143,1.774l.4-1.769a.489.489,0,0,1,.33-.357,2.286,2.286,0,0,1,.816-.113,3.57,3.57,0,0,1,.471.028.909.909,0,0,1,.295.091.3.3,0,0,1,.129.153.45.45,0,0,1,.012.2l-3.408,16.318a.5.5,0,0,1-.3.357,2.247,2.247,0,0,1-.828.107,2.694,2.694,0,0,1-.465-.028,1.085,1.085,0,0,1-.289-.079.321.321,0,0,1-.154-.143.365.365,0,0,1,0-.215l.7-3.356a4.574,4.574,0,0,1-.885,1.3,8.34,8.34,0,0,1-1.529,1.31,9.374,9.374,0,0,1-1.99,1.01,6.407,6.407,0,0,1-2.217.4A5.4,5.4,0,0,1,22079.666,9236.67Zm4.092-14.793a5.836,5.836,0,0,0-1.609,1.355,8.967,8.967,0,0,0-1.191,1.9,14.863,14.863,0,0,0-.822,2.178,16.617,16.617,0,0,0-.469,2.171,13.953,13.953,0,0,0-.148,1.871,8.223,8.223,0,0,0,.113,1.39,3.792,3.792,0,0,0,.438,1.281,2.719,2.719,0,0,0,.918.947,2.822,2.822,0,0,0,1.52.368,4.977,4.977,0,0,0,2.279-.59,7.644,7.644,0,0,0,2.137-1.639,11.4,11.4,0,0,0,1.752-2.506,12.459,12.459,0,0,0,1.135-3.2l.7-3.26a7.659,7.659,0,0,0-2.154-2.087,4.827,4.827,0,0,0-2.551-.691A4.14,4.14,0,0,0,22083.758,9221.877Zm262.969,15.054a3,3,0,0,1-1.227-.646,2.643,2.643,0,0,1-.725-1.111,4.715,4.715,0,0,1-.232-1.582c0-.147.006-.307.018-.482a4.467,4.467,0,0,1,.066-.538c.029-.187.063-.375.092-.567s.068-.374.107-.544l2.047-9.82h-2.541a.393.393,0,0,1-.289-.1.553.553,0,0,1-.1-.4,3.124,3.124,0,0,1,.035-.471,1.521,1.521,0,0,1,.129-.426.97.97,0,0,1,.25-.306.539.539,0,0,1,.357-.113h2.541l.844-4a.385.385,0,0,1,.1-.2.491.491,0,0,1,.217-.153,1.136,1.136,0,0,1,.357-.091,4.63,4.63,0,0,1,.555-.028,4.229,4.229,0,0,1,.527.028.8.8,0,0,1,.318.091.243.243,0,0,1,.141.153.438.438,0,0,1,.012.2l-.828,4h4.707a.335.335,0,0,1,.346.192.986.986,0,0,1,.084.38,2.851,2.851,0,0,1-.016.289,1.526,1.526,0,0,1-.068.278,1.321,1.321,0,0,1-.125.267,1.234,1.234,0,0,1-.158.215.615.615,0,0,1-.2.142.569.569,0,0,1-.244.058h-4.705l-2.07,9.859c-.051.272-.1.59-.141.947a7.9,7.9,0,0,0-.062.873,2.216,2.216,0,0,0,.424,1.5,1.813,1.813,0,0,0,1.418.476,4.517,4.517,0,0,0,.93-.085,7.018,7.018,0,0,0,.709-.2c.2-.073.375-.142.516-.2a.945.945,0,0,1,.369-.091.292.292,0,0,1,.232.091.461.461,0,0,1,.084.323,2.222,2.222,0,0,1-.033.38c-.027.13-.057.261-.1.386a2,2,0,0,1-.143.34,1.1,1.1,0,0,1-.2.267,1.329,1.329,0,0,1-.414.232,5.658,5.658,0,0,1-.646.2,7.777,7.777,0,0,1-.766.142,5,5,0,0,1-.754.057A6.277,6.277,0,0,1,22346.727,9236.931Zm-57.67,0a3.013,3.013,0,0,1-1.225-.646,2.7,2.7,0,0,1-.727-1.111,4.869,4.869,0,0,1-.232-1.582c0-.147.006-.307.018-.482a4.481,4.481,0,0,1,.068-.538c.027-.187.063-.375.09-.567s.068-.374.107-.544l2.047-9.82h-2.539a.39.39,0,0,1-.289-.1.569.569,0,0,1-.107-.4,3.123,3.123,0,0,1,.039-.471,1.4,1.4,0,0,1,.131-.426.929.929,0,0,1,.244-.306.564.564,0,0,1,.361-.113h2.541l.844-4a.388.388,0,0,1,.1-.2.52.52,0,0,1,.215-.153,1.081,1.081,0,0,1,.357-.091,4.666,4.666,0,0,1,.557-.028,4.369,4.369,0,0,1,.527.028.8.8,0,0,1,.316.091.264.264,0,0,1,.143.153.391.391,0,0,1,.01.2l-.826,4h4.705a.335.335,0,0,1,.346.192.991.991,0,0,1,.086.38,2.38,2.38,0,0,1-.018.289,1.381,1.381,0,0,1-.068.278,2.174,2.174,0,0,1-.119.267,1.655,1.655,0,0,1-.164.215.659.659,0,0,1-.193.142.608.608,0,0,1-.248.058h-4.707l-2.068,9.859c-.053.272-.1.59-.143.947a7.039,7.039,0,0,0-.062.873,2.216,2.216,0,0,0,.42,1.5,1.831,1.831,0,0,0,1.422.476,4.55,4.55,0,0,0,.932-.085c.271-.062.5-.13.707-.2s.375-.142.518-.2a.953.953,0,0,1,.367-.091.3.3,0,0,1,.232.091.46.46,0,0,1,.086.323,1.915,1.915,0,0,1-.039.38,3.212,3.212,0,0,1-.092.386,1.847,1.847,0,0,1-.141.34,1.217,1.217,0,0,1-.2.267,1.377,1.377,0,0,1-.414.232,5.658,5.658,0,0,1-.646.2,7.672,7.672,0,0,1-.766.142,4.9,4.9,0,0,1-.748.057A6.312,6.312,0,0,1,22289.057,9236.931Zm263.914.012a1.27,1.27,0,0,1-.318-.091.279.279,0,0,1-.152-.147.272.272,0,0,1,0-.192l3.385-16.318a.583.583,0,0,1,.09-.2.521.521,0,0,1,.205-.153,1.54,1.54,0,0,1,.369-.091,5.039,5.039,0,0,1,.561-.028,4.427,4.427,0,0,1,.527.028,1.063,1.063,0,0,1,.318.091.32.32,0,0,1,.146.153.45.45,0,0,1,.006.2l-3.367,16.318a.777.777,0,0,1-.1.192.424.424,0,0,1-.209.147,1.846,1.846,0,0,1-.363.091,3.821,3.821,0,0,1-.551.034A3.452,3.452,0,0,1,22552.971,9236.942Zm-13.023,0a1.327,1.327,0,0,1-.324-.091.261.261,0,0,1-.146-.147.221.221,0,0,1,0-.192l3.385-16.318a.478.478,0,0,1,.1-.2.723.723,0,0,1,.215-.153,1.579,1.579,0,0,1,.352-.091,4.066,4.066,0,0,1,.488-.028,3.616,3.616,0,0,1,.471.028.9.9,0,0,1,.289.091.3.3,0,0,1,.131.153.359.359,0,0,1,.012.2l-.658,3.175a9,9,0,0,1,1.016-1.435,8.3,8.3,0,0,1,1.309-1.225,6.648,6.648,0,0,1,1.486-.855,4.028,4.028,0,0,1,1.553-.323,4.671,4.671,0,0,1,.686.045c.232.028.449.063.652.107a2.9,2.9,0,0,1,.527.153,1.036,1.036,0,0,1,.34.2.39.39,0,0,1,.113.323c0,.034-.01.1-.021.2s-.029.2-.045.323-.047.243-.086.38a1.859,1.859,0,0,1-.143.356,1.292,1.292,0,0,1-.18.272.282.282,0,0,1-.223.107.893.893,0,0,1-.311-.067c-.119-.052-.262-.108-.414-.165a4.565,4.565,0,0,0-.539-.164,3.108,3.108,0,0,0-.7-.074,2.989,2.989,0,0,0-1.549.579,8.488,8.488,0,0,0-1.791,1.6,12.749,12.749,0,0,0-1.639,2.455,12.125,12.125,0,0,0-1.1,3.118l-1.486,7.229a1.029,1.029,0,0,1-.1.192.424.424,0,0,1-.209.147,1.846,1.846,0,0,1-.369.091,3.7,3.7,0,0,1-.545.034A3.452,3.452,0,0,1,22539.947,9236.942Zm-36.7,0a1.334,1.334,0,0,1-.322-.091.271.271,0,0,1-.148-.147.235.235,0,0,1,0-.192l2.127-10.24c.063-.386.119-.748.17-1.083a6.63,6.63,0,0,0,.074-.992,3.556,3.556,0,0,0-.539-2.1,2.082,2.082,0,0,0-1.832-.771,4.526,4.526,0,0,0-2.182.6,7.932,7.932,0,0,0-2.1,1.644,11.172,11.172,0,0,0-1.752,2.518,11.991,11.991,0,0,0-1.123,3.192l-1.5,7.229a.771.771,0,0,1-.1.192.424.424,0,0,1-.209.147,1.846,1.846,0,0,1-.369.091,3.677,3.677,0,0,1-.545.034,3.407,3.407,0,0,1-.527-.034,1.277,1.277,0,0,1-.316-.091.283.283,0,0,1-.154-.147.372.372,0,0,1-.016-.192l2.125-10.24a7.083,7.083,0,0,0,.2-1.162c.029-.38.045-.726.045-1.038a3.309,3.309,0,0,0-.543-2,2.126,2.126,0,0,0-1.826-.743,4.533,4.533,0,0,0-2.184.6,8,8,0,0,0-2.1,1.644,11.364,11.364,0,0,0-1.752,2.518,12.06,12.06,0,0,0-1.123,3.192l-1.484,7.229a.623.623,0,0,1-.1.192.424.424,0,0,1-.209.147,1.846,1.846,0,0,1-.363.091,3.791,3.791,0,0,1-.545.034,3.588,3.588,0,0,1-.549-.034,1.27,1.27,0,0,1-.318-.091.279.279,0,0,1-.152-.147.272.272,0,0,1,0-.192l3.424-16.318a.573.573,0,0,1,.086-.2.629.629,0,0,1,.2-.153,1.457,1.457,0,0,1,.342-.091,4.031,4.031,0,0,1,.486-.028,3.616,3.616,0,0,1,.471.028.941.941,0,0,1,.295.091.3.3,0,0,1,.131.153.378.378,0,0,1,.006.2l-.691,3.334a4.457,4.457,0,0,1,.885-1.3,8.955,8.955,0,0,1,3.441-2.3,5.951,5.951,0,0,1,2.125-.4,5.767,5.767,0,0,1,1.98.295,3.557,3.557,0,0,1,1.326.827,3.218,3.218,0,0,1,.754,1.265,6.354,6.354,0,0,1,.271,1.61,6.794,6.794,0,0,1,1-1.315,9.217,9.217,0,0,1,1.531-1.3,9.383,9.383,0,0,1,1.91-.986,5.815,5.815,0,0,1,2.109-.4,5.569,5.569,0,0,1,2.053.328,3.546,3.546,0,0,1,1.338.913,3.394,3.394,0,0,1,.721,1.355,6.093,6.093,0,0,1,.215,1.673,12.207,12.207,0,0,1-.062,1.235c-.045.4-.107.812-.2,1.236l-2.145,10.24a.575.575,0,0,1-.084.192.421.421,0,0,1-.211.147,1.894,1.894,0,0,1-.367.091,3.715,3.715,0,0,1-.545.034A3.5,3.5,0,0,1,22503.244,9236.942Zm-49.764,0a1.27,1.27,0,0,1-.318-.091.259.259,0,0,1-.152-.34l2.125-10.24c.063-.386.119-.748.17-1.083a6.63,6.63,0,0,0,.074-.992,3.6,3.6,0,0,0-.533-2.1,2.085,2.085,0,0,0-1.836-.771,4.544,4.544,0,0,0-2.184.6,8,8,0,0,0-2.1,1.644,11.364,11.364,0,0,0-1.752,2.518,12.192,12.192,0,0,0-1.117,3.192l-1.508,7.229a.777.777,0,0,1-.1.192.424.424,0,0,1-.209.147,1.811,1.811,0,0,1-.363.091,3.811,3.811,0,0,1-.549.034,3.425,3.425,0,0,1-.527-.034,1.27,1.27,0,0,1-.318-.091.292.292,0,0,1-.152-.147.352.352,0,0,1-.018-.192l2.127-10.24a7.286,7.286,0,0,0,.2-1.162c.029-.38.045-.726.045-1.038a3.3,3.3,0,0,0-.543-2,2.119,2.119,0,0,0-1.826-.743,4.533,4.533,0,0,0-2.184.6,8,8,0,0,0-2.1,1.644,11.364,11.364,0,0,0-1.752,2.518,12.052,12.052,0,0,0-1.117,3.192l-1.49,7.229a.661.661,0,0,1-.1.192.45.45,0,0,1-.205.147,2,2,0,0,1-.369.091,3.781,3.781,0,0,1-.543.034,3.634,3.634,0,0,1-.551-.034,1.27,1.27,0,0,1-.318-.091.307.307,0,0,1-.152-.147.272.272,0,0,1,0-.192l3.43-16.318a.558.558,0,0,1,.08-.2.617.617,0,0,1,.2-.153,1.413,1.413,0,0,1,.34-.091,4.136,4.136,0,0,1,.492-.028,3.662,3.662,0,0,1,.471.028.884.884,0,0,1,.289.091.3.3,0,0,1,.131.153.45.45,0,0,1,.012.2l-.7,3.334a4.7,4.7,0,0,1,.885-1.3,8.854,8.854,0,0,1,1.514-1.3,8.733,8.733,0,0,1,1.928-1,5.954,5.954,0,0,1,2.127-.4,5.739,5.739,0,0,1,1.979.295,3.542,3.542,0,0,1,1.326.827,3.218,3.218,0,0,1,.754,1.265,5.875,5.875,0,0,1,.271,1.61,6.874,6.874,0,0,1,1-1.315,9.272,9.272,0,0,1,3.447-2.285,5.777,5.777,0,0,1,2.1-.4,5.548,5.548,0,0,1,2.053.328,3.5,3.5,0,0,1,1.334.913,3.412,3.412,0,0,1,.73,1.355,6.246,6.246,0,0,1,.215,1.673,11.159,11.159,0,0,1-.066,1.235c-.047.4-.109.812-.2,1.236l-2.143,10.24a.51.51,0,0,1-.086.192.424.424,0,0,1-.209.147,1.883,1.883,0,0,1-.363.091,3.84,3.84,0,0,1-.551.034A3.452,3.452,0,0,1,22453.48,9236.942Zm-30.283,0a1.27,1.27,0,0,1-.318-.091.255.255,0,0,1-.152-.147.272.272,0,0,1,0-.192l3.385-16.318a.652.652,0,0,1,.084-.2.562.562,0,0,1,.211-.153,1.545,1.545,0,0,1,.367-.091,5.105,5.105,0,0,1,.563-.028,4.427,4.427,0,0,1,.527.028,1.058,1.058,0,0,1,.322.091.287.287,0,0,1,.137.153.359.359,0,0,1,.012.2l-3.369,16.318a.771.771,0,0,1-.1.192.424.424,0,0,1-.209.147,1.846,1.846,0,0,1-.369.091,3.7,3.7,0,0,1-.545.034A3.452,3.452,0,0,1,22423.2,9236.942Zm-8.432,0a1.327,1.327,0,0,1-.324-.091.267.267,0,0,1-.146-.147.27.27,0,0,1-.018-.192l2.143-10.24q.129-.637.188-1.19a8.948,8.948,0,0,0,.057-.976,3.286,3.286,0,0,0-.566-2.019,2.191,2.191,0,0,0-1.877-.76,4.853,4.853,0,0,0-2.279.6,7.757,7.757,0,0,0-2.137,1.644,11.38,11.38,0,0,0-1.758,2.518,11.8,11.8,0,0,0-1.129,3.192l-1.492,7.229a.618.618,0,0,1-.1.192.424.424,0,0,1-.209.147,1.777,1.777,0,0,1-.363.091,3.791,3.791,0,0,1-.545.034,3.588,3.588,0,0,1-.549-.034,1.27,1.27,0,0,1-.318-.091.292.292,0,0,1-.152-.147.272.272,0,0,1,0-.192l3.43-16.318a.524.524,0,0,1,.08-.2.629.629,0,0,1,.2-.153,1.457,1.457,0,0,1,.342-.091,4.006,4.006,0,0,1,.486-.028,3.616,3.616,0,0,1,.471.028.941.941,0,0,1,.295.091.3.3,0,0,1,.131.153.481.481,0,0,1,.012.2l-.7,3.334a4.763,4.763,0,0,1,.873-1.3,8.255,8.255,0,0,1,1.525-1.3,8.865,8.865,0,0,1,1.984-1,6.594,6.594,0,0,1,2.279-.4,5.222,5.222,0,0,1,2.053.356,3.651,3.651,0,0,1,1.332.959,3.5,3.5,0,0,1,.725,1.36,5.684,5.684,0,0,1,.217,1.594,9.887,9.887,0,0,1-.074,1.235c-.051.4-.119.812-.205,1.236l-2.131,10.24a.661.661,0,0,1-.1.192.412.412,0,0,1-.205.147,1.969,1.969,0,0,1-.357.091,3.728,3.728,0,0,1-.555.034A3.32,3.32,0,0,1,22414.766,9236.942Zm-19.613,0a1.307,1.307,0,0,1-.322-.091.271.271,0,0,1-.148-.147.235.235,0,0,1,0-.192l3.391-16.318a.468.468,0,0,1,.08-.2.569.569,0,0,1,.209-.153,1.516,1.516,0,0,1,.369-.091,5.039,5.039,0,0,1,.561-.028,4.377,4.377,0,0,1,.527.028,1.165,1.165,0,0,1,.324.091.314.314,0,0,1,.141.153.45.45,0,0,1,.006.2l-3.367,16.318a.841.841,0,0,1-.1.192.43.43,0,0,1-.211.147,1.894,1.894,0,0,1-.367.091,3.715,3.715,0,0,1-.545.034A3.5,3.5,0,0,1,22395.152,9236.942Zm-8.453,0a1.27,1.27,0,0,1-.318-.091.3.3,0,0,1-.152-.147.272.272,0,0,1,0-.192l2.131-10.24c.063-.386.119-.748.166-1.083a6.641,6.641,0,0,0,.078-.992,3.6,3.6,0,0,0-.539-2.1,2.083,2.083,0,0,0-1.836-.771,4.544,4.544,0,0,0-2.184.6,8.091,8.091,0,0,0-2.1,1.644,11.156,11.156,0,0,0-1.746,2.518,12.06,12.06,0,0,0-1.123,3.192l-1.508,7.229a.661.661,0,0,1-.1.192.412.412,0,0,1-.205.147,2,2,0,0,1-.369.091,3.781,3.781,0,0,1-.543.034,3.32,3.32,0,0,1-.527-.034,1.327,1.327,0,0,1-.324-.091.267.267,0,0,1-.146-.147.27.27,0,0,1-.018-.192l2.121-10.24a7.318,7.318,0,0,0,.2-1.162c.029-.38.047-.726.047-1.038a3.257,3.257,0,0,0-.551-2,2.112,2.112,0,0,0-1.82-.743,4.542,4.542,0,0,0-2.187.6,8.067,8.067,0,0,0-2.1,1.644,11.283,11.283,0,0,0-1.746,2.518,11.989,11.989,0,0,0-1.121,3.192l-1.486,7.229a.861.861,0,0,1-.107.192.412.412,0,0,1-.205.147,1.894,1.894,0,0,1-.367.091,3.715,3.715,0,0,1-.545.034,3.5,3.5,0,0,1-.545-.034,1.307,1.307,0,0,1-.322-.091.271.271,0,0,1-.148-.147.235.235,0,0,1,0-.192l3.426-16.318a.476.476,0,0,1,.084-.2.526.526,0,0,1,.2-.153,1.289,1.289,0,0,1,.334-.091,4.25,4.25,0,0,1,.494-.028,3.639,3.639,0,0,1,.471.028.9.9,0,0,1,.289.091.309.309,0,0,1,.135.153.45.45,0,0,1,.006.2l-.7,3.334a4.7,4.7,0,0,1,.885-1.3,8.9,8.9,0,0,1,1.52-1.3,8.605,8.605,0,0,1,1.928-1,5.954,5.954,0,0,1,2.127-.4,5.727,5.727,0,0,1,1.973.295,3.567,3.567,0,0,1,1.332.827,3.206,3.206,0,0,1,.748,1.265,5.874,5.874,0,0,1,.273,1.61,6.956,6.956,0,0,1,1-1.315,9.23,9.23,0,0,1,3.447-2.285,5.761,5.761,0,0,1,2.1-.4,5.555,5.555,0,0,1,2.053.328,3.515,3.515,0,0,1,1.338.913,3.4,3.4,0,0,1,.725,1.355,6.245,6.245,0,0,1,.217,1.673,11.156,11.156,0,0,1-.068,1.235c-.045.4-.107.812-.193,1.236l-2.148,10.24a.412.412,0,0,1-.086.192.434.434,0,0,1-.2.147,2.036,2.036,0,0,1-.369.091,3.791,3.791,0,0,1-.545.034A3.588,3.588,0,0,1,22386.7,9236.942Zm-109.334,0a1.27,1.27,0,0,1-.318-.091.3.3,0,0,1-.152-.147.272.272,0,0,1,0-.192l3.391-16.318a.456.456,0,0,1,.086-.2.6.6,0,0,1,.2-.153,1.615,1.615,0,0,1,.369-.091,5.239,5.239,0,0,1,.566-.028,4.58,4.58,0,0,1,.527.028,1.063,1.063,0,0,1,.318.091.305.305,0,0,1,.141.153.45.45,0,0,1,.012.2l-3.373,16.318a.623.623,0,0,1-.1.192.434.434,0,0,1-.2.147,2,2,0,0,1-.369.091,3.781,3.781,0,0,1-.543.034A3.6,3.6,0,0,1,22277.365,9236.942Zm-8.506,0a1.418,1.418,0,0,1-.322-.091.271.271,0,0,1-.148-.147.3.3,0,0,1,0-.192l5.064-24.3a.424.424,0,0,1,.084-.2.458.458,0,0,1,.205-.153,1.228,1.228,0,0,1,.369-.091,5.239,5.239,0,0,1,.566-.028,4.58,4.58,0,0,1,.527.028.816.816,0,0,1,.316.091.267.267,0,0,1,.143.153.439.439,0,0,1,.012.2l-5.047,24.3a.771.771,0,0,1-.1.192.421.421,0,0,1-.211.147,1.789,1.789,0,0,1-.367.091,3.715,3.715,0,0,1-.545.034A3.5,3.5,0,0,1,22268.859,9236.942Zm-75.777,0a1.27,1.27,0,0,1-.318-.091.292.292,0,0,1-.152-.147.272.272,0,0,1,0-.192l2.131-10.24c.063-.386.119-.748.17-1.083a6.63,6.63,0,0,0,.074-.992,3.6,3.6,0,0,0-.539-2.1,2.085,2.085,0,0,0-1.836-.771,4.506,4.506,0,0,0-2.178.6,8.018,8.018,0,0,0-2.1,1.644,11.156,11.156,0,0,0-1.746,2.518,11.991,11.991,0,0,0-1.123,3.192l-1.5,7.229a1.035,1.035,0,0,1-.1.192.424.424,0,0,1-.209.147,1.881,1.881,0,0,1-.369.091,3.724,3.724,0,0,1-.543.034,3.32,3.32,0,0,1-.527-.034,1.27,1.27,0,0,1-.318-.091.255.255,0,0,1-.152-.147.305.305,0,0,1-.018-.192l2.127-10.24a8.012,8.012,0,0,0,.2-1.162c.029-.38.045-.726.045-1.038a3.309,3.309,0,0,0-.543-2,2.133,2.133,0,0,0-1.826-.743,4.533,4.533,0,0,0-2.184.6,8,8,0,0,0-2.1,1.644,11.172,11.172,0,0,0-1.752,2.518,12.06,12.06,0,0,0-1.123,3.192l-1.484,7.229a.777.777,0,0,1-.1.192.424.424,0,0,1-.209.147,1.921,1.921,0,0,1-.363.091,3.811,3.811,0,0,1-.549.034,3.5,3.5,0,0,1-.545-.034,1.27,1.27,0,0,1-.318-.091.266.266,0,0,1-.152-.147.272.272,0,0,1,0-.192l3.424-16.318a.48.48,0,0,1,.086-.2.559.559,0,0,1,.2-.153,1.275,1.275,0,0,1,.34-.091,4.031,4.031,0,0,1,.486-.028,3.593,3.593,0,0,1,.471.028.976.976,0,0,1,.295.091.319.319,0,0,1,.131.153.45.45,0,0,1,.006.2l-.7,3.334a4.7,4.7,0,0,1,.885-1.3,9.055,9.055,0,0,1,1.52-1.3,8.733,8.733,0,0,1,1.928-1,5.951,5.951,0,0,1,2.125-.4,5.79,5.79,0,0,1,1.98.295,3.557,3.557,0,0,1,1.326.827,3.138,3.138,0,0,1,.748,1.265,6.1,6.1,0,0,1,.277,1.61,6.639,6.639,0,0,1,1-1.315,9.217,9.217,0,0,1,1.531-1.3,9.383,9.383,0,0,1,1.91-.986,5.807,5.807,0,0,1,2.109-.4,5.569,5.569,0,0,1,2.053.328,3.477,3.477,0,0,1,1.332.913,3.381,3.381,0,0,1,.727,1.355,6.246,6.246,0,0,1,.215,1.673,12.207,12.207,0,0,1-.062,1.235c-.045.4-.113.812-.2,1.236l-2.148,10.24a.433.433,0,0,1-.086.192.406.406,0,0,1-.2.147,1.956,1.956,0,0,1-.369.091,3.753,3.753,0,0,1-.545.034A3.588,3.588,0,0,1,22193.082,9236.942Zm-49.76,0a1.409,1.409,0,0,1-.324-.091.261.261,0,0,1-.146-.147.221.221,0,0,1,0-.192l2.125-10.24c.063-.386.119-.748.17-1.083a6.381,6.381,0,0,0,.074-.992,3.6,3.6,0,0,0-.533-2.1,2.085,2.085,0,0,0-1.836-.771,4.544,4.544,0,0,0-2.184.6,8,8,0,0,0-2.1,1.644,11.364,11.364,0,0,0-1.752,2.518,12.06,12.06,0,0,0-1.123,3.192l-1.5,7.229a.679.679,0,0,1-.107.192.387.387,0,0,1-.205.147,1.921,1.921,0,0,1-.363.091,3.811,3.811,0,0,1-.549.034,3.425,3.425,0,0,1-.527-.034,1.27,1.27,0,0,1-.318-.091.279.279,0,0,1-.152-.147.352.352,0,0,1-.018-.192l2.127-10.24a7.286,7.286,0,0,0,.2-1.162c.029-.38.047-.726.047-1.038a3.3,3.3,0,0,0-.545-2,2.124,2.124,0,0,0-1.826-.743,4.533,4.533,0,0,0-2.184.6,8,8,0,0,0-2.1,1.644,11.11,11.11,0,0,0-1.752,2.518,12.052,12.052,0,0,0-1.117,3.192l-1.49,7.229a.661.661,0,0,1-.1.192.44.44,0,0,1-.205.147,2,2,0,0,1-.369.091,3.811,3.811,0,0,1-.549.034,3.55,3.55,0,0,1-.545-.034,1.251,1.251,0,0,1-.316-.091.283.283,0,0,1-.154-.147.3.3,0,0,1,0-.192l3.426-16.318a.652.652,0,0,1,.084-.2.617.617,0,0,1,.2-.153,1.413,1.413,0,0,1,.34-.091,4.066,4.066,0,0,1,.488-.028,3.57,3.57,0,0,1,.471.028.917.917,0,0,1,.289.091.309.309,0,0,1,.135.153.45.45,0,0,1,.012.2l-.7,3.334a4.7,4.7,0,0,1,.885-1.3,8.854,8.854,0,0,1,1.514-1.3,8.733,8.733,0,0,1,1.928-1,5.954,5.954,0,0,1,2.127-.4,5.739,5.739,0,0,1,1.979.295,3.542,3.542,0,0,1,1.326.827,3.218,3.218,0,0,1,.754,1.265,6.352,6.352,0,0,1,.273,1.61,6.715,6.715,0,0,1,1-1.315,9.122,9.122,0,0,1,1.529-1.3,9.5,9.5,0,0,1,1.912-.986,5.815,5.815,0,0,1,2.109-.4,5.558,5.558,0,0,1,2.051.328,3.5,3.5,0,0,1,1.334.913,3.33,3.33,0,0,1,.725,1.355,6.018,6.018,0,0,1,.217,1.673,11.167,11.167,0,0,1-.062,1.235c-.047.4-.113.812-.2,1.236l-2.148,10.24a.419.419,0,0,1-.289.34,1.846,1.846,0,0,1-.369.091,3.677,3.677,0,0,1-.545.034A3.452,3.452,0,0,1,22143.322,9236.942Zm-30.283,0a1.327,1.327,0,0,1-.324-.091.261.261,0,0,1-.146-.147.221.221,0,0,1,0-.192l3.385-16.318a.568.568,0,0,1,.084-.2.578.578,0,0,1,.211-.153,1.484,1.484,0,0,1,.363-.091,5.239,5.239,0,0,1,.566-.028,4.427,4.427,0,0,1,.527.028,1.13,1.13,0,0,1,.322.091.287.287,0,0,1,.137.153.377.377,0,0,1,.012.2l-3.369,16.318a1.029,1.029,0,0,1-.1.192.424.424,0,0,1-.209.147,1.846,1.846,0,0,1-.369.091,3.677,3.677,0,0,1-.545.034A3.452,3.452,0,0,1,22113.039,9236.942Zm-6.373.006a1.468,1.468,0,0,1-.346-.079.337.337,0,0,1-.182-.143c-.029-.062-.068-.13-.1-.2l-3.254-6.781-5.93,6.781-.217.2a.773.773,0,0,1-.271.143,2.482,2.482,0,0,1-.414.079,4.9,4.9,0,0,1-.623.028,3.6,3.6,0,0,1-.658-.046.865.865,0,0,1-.387-.142.25.25,0,0,1-.1-.255.907.907,0,0,1,.221-.368l7.377-8.023-3.844-7.62a.768.768,0,0,1-.1-.374.339.339,0,0,1,.141-.25.831.831,0,0,1,.4-.136,5.386,5.386,0,0,1,.676-.04,5.863,5.863,0,0,1,.623.028,1.267,1.267,0,0,1,.346.085.38.38,0,0,1,.182.137,1.9,1.9,0,0,1,.113.187l3.068,6.419,5.646-6.419a2.062,2.062,0,0,1,.217-.187.752.752,0,0,1,.271-.137,2.314,2.314,0,0,1,.4-.085,5.965,5.965,0,0,1,.613-.028,5.4,5.4,0,0,1,.668.04,1.014,1.014,0,0,1,.408.124.212.212,0,0,1,.092.244,1.023,1.023,0,0,1-.262.392l-7.043,7.728,4.066,7.916a.676.676,0,0,1,.1.368.36.36,0,0,1-.17.255,1.16,1.16,0,0,1-.426.142,3.867,3.867,0,0,1-.686.046A4.379,4.379,0,0,1,22106.666,9236.948Zm-38.262-.006a1.43,1.43,0,0,1-.34-.091.3.3,0,0,1-.164-.147.352.352,0,0,1-.018-.192l4.406-21.041h-.041l-14.021,21.166a.859.859,0,0,1-.363.243,2.333,2.333,0,0,1-.766.1,1.946,1.946,0,0,1-.73-.1c-.143-.067-.215-.147-.227-.243l-4.689-21.166h-.033l-4.389,21.041a.578.578,0,0,1-.113.192.481.481,0,0,1-.227.147,2.03,2.03,0,0,1-.375.091,3.791,3.791,0,0,1-.545.034,3.629,3.629,0,0,1-.539-.034,1.314,1.314,0,0,1-.328-.091.292.292,0,0,1-.152-.147.272.272,0,0,1,0-.192l4.541-21.835a1.217,1.217,0,0,1,.205-.539,1.426,1.426,0,0,1,.34-.352,1.129,1.129,0,0,1,.385-.187,1.264,1.264,0,0,1,.369-.057h1.219a2.726,2.726,0,0,1,.783.1,1.506,1.506,0,0,1,.527.289,1.316,1.316,0,0,1,.34.471,3.646,3.646,0,0,1,.2.641l4.156,18.5h.1l12.252-18.5a7.241,7.241,0,0,1,.459-.612,2.936,2.936,0,0,1,.527-.471,2.541,2.541,0,0,1,.635-.306,2.383,2.383,0,0,1,.75-.107h1.395a1.009,1.009,0,0,1,.34.057.74.74,0,0,1,.3.187.706.706,0,0,1,.176.352,1.37,1.37,0,0,1-.012.539l-4.531,21.835a.653.653,0,0,1-.113.192.481.481,0,0,1-.227.147,2.165,2.165,0,0,1-.379.091,3.715,3.715,0,0,1-.545.034A3.49,3.49,0,0,1,22068.4,9236.942Zm488.734-20.837a.683.683,0,0,1-.393-.244.838.838,0,0,1-.135-.453,3.275,3.275,0,0,1,.293-1.39,1.418,1.418,0,0,1,.33-.459,1.074,1.074,0,0,1,.5-.25,3.026,3.026,0,0,1,.732-.073,2.606,2.606,0,0,1,.7.073.7.7,0,0,1,.4.25.813.813,0,0,1,.143.459,2.873,2.873,0,0,1-.086.7,3.362,3.362,0,0,1-.2.692,1.312,1.312,0,0,1-.33.453,1.291,1.291,0,0,1-.51.244,3.383,3.383,0,0,1-.732.068A3.018,3.018,0,0,1,22557.139,9216.105Zm-129.775,0a.714.714,0,0,1-.4-.244.837.837,0,0,1-.131-.453,3.374,3.374,0,0,1,.068-.692,3.322,3.322,0,0,1,.227-.7,1.418,1.418,0,0,1,.33-.459,1.065,1.065,0,0,1,.5-.25,3.026,3.026,0,0,1,.732-.073,2.606,2.606,0,0,1,.7.073.7.7,0,0,1,.4.25.86.86,0,0,1,.141.459,2.858,2.858,0,0,1-.084.7,3.236,3.236,0,0,1-.2.692,1.283,1.283,0,0,1-.328.453,1.266,1.266,0,0,1-.51.244,3.383,3.383,0,0,1-.732.068A3.048,3.048,0,0,1,22427.363,9216.105Zm-28.043,0a.707.707,0,0,1-.4-.244.837.837,0,0,1-.131-.453,3.374,3.374,0,0,1,.068-.692,3.212,3.212,0,0,1,.227-.7,1.332,1.332,0,0,1,.328-.459,1.072,1.072,0,0,1,.5-.25,3,3,0,0,1,.73-.073,2.606,2.606,0,0,1,.7.073.71.71,0,0,1,.4.25.828.828,0,0,1,.141.459,2.958,2.958,0,0,1-.084.7,3.353,3.353,0,0,1-.2.692,1.259,1.259,0,0,1-.328.453,1.34,1.34,0,0,1-.512.244,3.389,3.389,0,0,1-.73.068A3.048,3.048,0,0,1,22399.32,9216.105Zm-117.781,0a.68.68,0,0,1-.4-.244.789.789,0,0,1-.129-.453,3.742,3.742,0,0,1,.061-.692,4,4,0,0,1,.229-.7,1.474,1.474,0,0,1,.328-.459,1.1,1.1,0,0,1,.5-.25,3.111,3.111,0,0,1,.738-.073,2.53,2.53,0,0,1,.691.073.679.679,0,0,1,.4.25.771.771,0,0,1,.143.459,2.873,2.873,0,0,1-.086.7,3.031,3.031,0,0,1-.2.692,1.178,1.178,0,0,1-.33.453,1.253,1.253,0,0,1-.5.244,3.46,3.46,0,0,1-.736.068A2.971,2.971,0,0,1,22281.539,9216.105Zm-164.334,0a.714.714,0,0,1-.4-.244.854.854,0,0,1-.131-.453,3.517,3.517,0,0,1,.068-.692,3.322,3.322,0,0,1,.227-.7,1.336,1.336,0,0,1,.33-.459,1.074,1.074,0,0,1,.5-.25,3.026,3.026,0,0,1,.732-.073,2.606,2.606,0,0,1,.7.073.7.7,0,0,1,.4.25.811.811,0,0,1,.137.459,2.828,2.828,0,0,1-.08.7,3.236,3.236,0,0,1-.2.692,1.283,1.283,0,0,1-.328.453,1.345,1.345,0,0,1-.51.244,3.383,3.383,0,0,1-.732.068A3.048,3.048,0,0,1,22117.205,9216.105Zm375.641-29.064a15.332,15.332,0,0,1-5.387-2.88,12.9,12.9,0,0,1-3.531-4.729,16.16,16.16,0,0,1-1.254-6.594,14.974,14.974,0,0,1,1.594-7.088,13.035,13.035,0,0,1,4.758-4.967,23.711,23.711,0,0,1,7.875-2.9,56.042,56.042,0,0,1,10.932-.941h4.547v-2.824a14.928,14.928,0,0,0-.441-3.844,6.384,6.384,0,0,0-1.469-2.744,5.994,5.994,0,0,0-2.717-1.622,14.413,14.413,0,0,0-4.213-.527,21.631,21.631,0,0,0-5.879.737,32.888,32.888,0,0,0-4.576,1.622c-1.326.59-2.437,1.134-3.322,1.621a4.868,4.868,0,0,1-2.172.731,1.56,1.56,0,0,1-1.02-.368,2.732,2.732,0,0,1-.732-1.044,7.31,7.31,0,0,1-.447-1.678,14.241,14.241,0,0,1-.154-2.194,9.89,9.89,0,0,1,.262-2.562,3.944,3.944,0,0,1,.992-1.7,9.879,9.879,0,0,1,2.563-1.673,30.264,30.264,0,0,1,4.287-1.7,40.553,40.553,0,0,1,5.363-1.281,39.55,39.55,0,0,1,15.377.578,15.763,15.763,0,0,1,6.406,3.295,12.832,12.832,0,0,1,3.664,5.727,26.808,26.808,0,0,1,1.15,8.317v31.378a1.387,1.387,0,0,1-.527,1.15,3.541,3.541,0,0,1-1.645.6,21.85,21.85,0,0,1-3.322.187,22.1,22.1,0,0,1-3.424-.187,2.948,2.948,0,0,1-1.52-.6,1.507,1.507,0,0,1-.443-1.15v-3.714a21.178,21.178,0,0,1-6.566,4.813,19.028,19.028,0,0,1-8.182,1.724A23.053,23.053,0,0,1,22492.846,9187.041Zm9.072-21.37a10.437,10.437,0,0,0-3.656,1.418,5.8,5.8,0,0,0-2.07,2.273,6.925,6.925,0,0,0-.652,3.056,5.869,5.869,0,0,0,1.859,4.6,7.405,7.405,0,0,0,5.148,1.673,9.624,9.624,0,0,0,5.1-1.412,21.081,21.081,0,0,0,4.734-4.128V9165.2h-5.018A27.207,27.207,0,0,0,22501.918,9165.671Zm-284,21.37a15.315,15.315,0,0,1-5.387-2.88,12.922,12.922,0,0,1-3.533-4.729,16.193,16.193,0,0,1-1.252-6.594,14.974,14.974,0,0,1,1.594-7.088,13.032,13.032,0,0,1,4.762-4.967,23.643,23.643,0,0,1,7.869-2.9,56.057,56.057,0,0,1,10.932-.941h4.549v-2.824a14.923,14.923,0,0,0-.443-3.844,6.417,6.417,0,0,0-1.463-2.744,6.039,6.039,0,0,0-2.721-1.622,14.4,14.4,0,0,0-4.213-.527,21.646,21.646,0,0,0-5.881.737,33.226,33.226,0,0,0-4.58,1.622c-1.322.59-2.428,1.134-3.316,1.621a4.876,4.876,0,0,1-2.172.731,1.561,1.561,0,0,1-1.021-.368,2.709,2.709,0,0,1-.73-1.044,7.034,7.034,0,0,1-.443-1.678,13.745,13.745,0,0,1-.158-2.194,9.9,9.9,0,0,1,.26-2.562,3.949,3.949,0,0,1,.994-1.7,9.845,9.845,0,0,1,2.563-1.673,30.326,30.326,0,0,1,4.291-1.7,40.491,40.491,0,0,1,5.359-1.281,39.55,39.55,0,0,1,15.377.578,15.776,15.776,0,0,1,6.406,3.295,12.8,12.8,0,0,1,3.662,5.727,26.8,26.8,0,0,1,1.152,8.317v31.378a1.387,1.387,0,0,1-.527,1.15,3.541,3.541,0,0,1-1.645.6,21.85,21.85,0,0,1-3.322.187,22.185,22.185,0,0,1-3.426-.187,2.91,2.91,0,0,1-1.514-.6,1.488,1.488,0,0,1-.447-1.15v-3.714a21.178,21.178,0,0,1-6.566,4.813,19.028,19.028,0,0,1-8.182,1.724A23.034,23.034,0,0,1,22217.916,9187.041Zm9.072-21.37a10.448,10.448,0,0,0-3.658,1.418,5.779,5.779,0,0,0-2.068,2.273,6.845,6.845,0,0,0-.652,3.056,5.862,5.862,0,0,0,1.859,4.6,7.4,7.4,0,0,0,5.148,1.673,9.634,9.634,0,0,0,5.1-1.412,21.252,21.252,0,0,0,4.734-4.128V9165.2h-5.018A27.207,27.207,0,0,0,22226.988,9165.671Zm-64.859,20.77a19.469,19.469,0,0,1-7.818-4.763,19.862,19.862,0,0,1-4.684-8.052,37.885,37.885,0,0,1-1.543-11.4,36.2,36.2,0,0,1,1.621-11.221,23.548,23.548,0,0,1,4.707-8.471,20.288,20.288,0,0,1,7.508-5.312,25.821,25.821,0,0,1,9.961-1.826,26.1,26.1,0,0,1,10.02,1.724,18.009,18.009,0,0,1,6.82,4.785,19.25,19.25,0,0,1,3.924,7.246,31.447,31.447,0,0,1,1.26,9.1v2.093a5.066,5.066,0,0,1-1.072,3.555,3.849,3.849,0,0,1-2.955,1.151h-28.4a19.41,19.41,0,0,0,.7,5.414,10.259,10.259,0,0,0,2.252,4.128,9.781,9.781,0,0,0,3.975,2.591,17.067,17.067,0,0,0,5.828.891,32.436,32.436,0,0,0,6.066-.5,39.288,39.288,0,0,0,4.525-1.1c1.275-.4,2.33-.766,3.164-1.095a5.839,5.839,0,0,1,2.041-.5,1.585,1.585,0,0,1,.787.182,1.4,1.4,0,0,1,.521.657,4.553,4.553,0,0,1,.289,1.333c.047.572.074,1.3.074,2.172,0,.765-.018,1.417-.051,1.961a12.285,12.285,0,0,1-.158,1.384,3.409,3.409,0,0,1-.312.97,3.451,3.451,0,0,1-.551.754,6.352,6.352,0,0,1-1.854,1,28.42,28.42,0,0,1-3.873,1.225,52.091,52.091,0,0,1-5.385,1.049,45.045,45.045,0,0,1-6.488.442A34.4,34.4,0,0,1,22162.129,9186.44Zm5.074-40.8a8.866,8.866,0,0,0-3.09,2.535,11.623,11.623,0,0,0-1.883,3.765,18.682,18.682,0,0,0-.754,4.626h19.664q.152-5.536-2.223-8.7t-7.348-3.164A9.52,9.52,0,0,0,22167.2,9145.645Zm-114.766,40.3a17.182,17.182,0,0,1-6.016-5.568,24.172,24.172,0,0,1-3.373-8.187,45.09,45.09,0,0,1-1.049-9.859,43.391,43.391,0,0,1,1.332-11.192,25.389,25.389,0,0,1,3.9-8.472,17.238,17.238,0,0,1,6.379-5.386,19.576,19.576,0,0,1,8.789-1.883,15.639,15.639,0,0,1,7.109,1.593,25.206,25.206,0,0,1,6.328,4.684v-25.265a1.614,1.614,0,0,1,.289-.941,2.121,2.121,0,0,1,1.049-.7,8.959,8.959,0,0,1,2.014-.448,33.251,33.251,0,0,1,6.379,0,8.545,8.545,0,0,1,1.99.448,2.311,2.311,0,0,1,1.043.7,1.535,1.535,0,0,1,.316.941v68.617a1.7,1.7,0,0,1-.266.97,1.918,1.918,0,0,1-.885.658,6.22,6.22,0,0,1-1.7.362c-.715.068-1.594.107-2.643.107-1.117,0-2.023-.039-2.721-.107a6.572,6.572,0,0,1-1.7-.362,2.153,2.153,0,0,1-.941-.658,1.619,1.619,0,0,1-.283-.97v-5.177a30.1,30.1,0,0,1-7.559,6.016,19.833,19.833,0,0,1-17.781.08Zm8.154-38.131a9.381,9.381,0,0,0-2.977,3.431,17.949,17.949,0,0,0-1.674,4.785,26.381,26.381,0,0,0-.549,5.409,33.541,33.541,0,0,0,.471,5.7,17.81,17.81,0,0,0,1.541,4.944,9.39,9.39,0,0,0,2.848,3.476,7.4,7.4,0,0,0,4.5,1.3,8.81,8.81,0,0,0,2.641-.391,10.03,10.03,0,0,0,2.615-1.281,17.461,17.461,0,0,0,2.744-2.325,45.868,45.868,0,0,0,3.084-3.532v-15.479a29.143,29.143,0,0,0-5.41-5.442,9.09,9.09,0,0,0-5.414-1.883A7.635,7.635,0,0,0,22060.592,9147.811Zm519.328,39.18a9.392,9.392,0,0,1-2.014-.4,2.269,2.269,0,0,1-1.076-.651,1.447,1.447,0,0,1-.312-.919v-68.771a1.575,1.575,0,0,1,.313-.947,2.357,2.357,0,0,1,1.076-.7,8.808,8.808,0,0,1,2.014-.442,32.23,32.23,0,0,1,6.379,0,8.788,8.788,0,0,1,2.012.442,2.364,2.364,0,0,1,1.072.7,1.55,1.55,0,0,1,.313.947v68.771a1.425,1.425,0,0,1-.312.919,2.274,2.274,0,0,1-1.072.651,9.371,9.371,0,0,1-2.012.4c-.84.085-1.9.13-3.193.13S22580.754,9187.075,22579.92,9186.99Zm-32.2,0a9.367,9.367,0,0,1-2.014-.4,2.234,2.234,0,0,1-1.072-.651,1.428,1.428,0,0,1-.316-.919v-68.771a1.553,1.553,0,0,1,.316-.947,2.321,2.321,0,0,1,1.072-.7,8.783,8.783,0,0,1,2.014-.442,32.21,32.21,0,0,1,6.377,0,8.783,8.783,0,0,1,2.014.442,2.321,2.321,0,0,1,1.072.7,1.553,1.553,0,0,1,.316.947v68.771a1.428,1.428,0,0,1-.316.919,2.234,2.234,0,0,1-1.072.651,9.367,9.367,0,0,1-2.014.4c-.838.085-1.9.13-3.191.13S22548.553,9187.075,22547.721,9186.99Zm-90.76,0a9.392,9.392,0,0,1-2.014-.4,2.092,2.092,0,0,1-1.049-.651,1.513,1.513,0,0,1-.289-.919v-27.663a19.315,19.315,0,0,0-.441-4.293,9.967,9.967,0,0,0-1.361-3.316,6.5,6.5,0,0,0-2.3-2.149,6.844,6.844,0,0,0-3.318-.754,7.847,7.847,0,0,0-4.762,1.831,31.859,31.859,0,0,0-5.229,5.33v31.015a1.428,1.428,0,0,1-.316.919,2.3,2.3,0,0,1-1.072.651,9.367,9.367,0,0,1-2.014.4c-.838.085-1.881.13-3.141.13-1.287,0-2.354-.045-3.186-.13a9.367,9.367,0,0,1-2.014-.4,2.234,2.234,0,0,1-1.072-.651,1.428,1.428,0,0,1-.316-.919v-27.663a19.31,19.31,0,0,0-.443-4.293,10.461,10.461,0,0,0-1.332-3.316,6.242,6.242,0,0,0-2.3-2.149,6.875,6.875,0,0,0-3.293-.754,7.912,7.912,0,0,0-4.814,1.831,30.571,30.571,0,0,0-5.176,5.33v31.015a1.419,1.419,0,0,1-.318.919,2.274,2.274,0,0,1-1.072.651,9.346,9.346,0,0,1-2.012.4c-.834.085-1.9.13-3.187.13s-2.357-.045-3.191-.13a9.392,9.392,0,0,1-2.014-.4,2.269,2.269,0,0,1-1.076-.651,1.447,1.447,0,0,1-.312-.919V9138.37a1.6,1.6,0,0,1,.262-.913,1.89,1.89,0,0,1,.941-.651,7.6,7.6,0,0,1,1.752-.4,23.51,23.51,0,0,1,2.693-.13,24.673,24.673,0,0,1,2.771.13,6.368,6.368,0,0,1,1.7.4,1.854,1.854,0,0,1,.861.651,1.6,1.6,0,0,1,.262.913v5.393a30.869,30.869,0,0,1,7.717-6.277,16.571,16.571,0,0,1,8.029-2.092,20.418,20.418,0,0,1,5.176.6,14.676,14.676,0,0,1,4.105,1.724,12.822,12.822,0,0,1,3.113,2.693,15.843,15.843,0,0,1,2.2,3.5,39.214,39.214,0,0,1,4.105-3.866,23.761,23.761,0,0,1,3.975-2.643,18.275,18.275,0,0,1,3.918-1.52,16.369,16.369,0,0,1,4-.493,17.716,17.716,0,0,1,7.848,1.564,13.859,13.859,0,0,1,5.154,4.265,17.133,17.133,0,0,1,2.795,6.3,33.763,33.763,0,0,1,.84,7.632v29.863a1.419,1.419,0,0,1-.318.919,2.254,2.254,0,0,1-1.043.651,8.92,8.92,0,0,1-1.99.4q-1.251.127-3.191.13C22458.877,9187.12,22457.795,9187.075,22456.961,9186.99Zm-123.135,0a9.512,9.512,0,0,1-2.018-.4,2.08,2.08,0,0,1-1.043-.651,1.5,1.5,0,0,1-.291-.919v-27.663a19.315,19.315,0,0,0-.441-4.293,9.967,9.967,0,0,0-1.361-3.316,6.5,6.5,0,0,0-2.3-2.149,6.838,6.838,0,0,0-3.318-.754,7.847,7.847,0,0,0-4.762,1.831,31.859,31.859,0,0,0-5.229,5.33v31.015a1.428,1.428,0,0,1-.316.919,2.3,2.3,0,0,1-1.072.651,9.371,9.371,0,0,1-2.012.4c-.84.085-1.883.13-3.137.13-1.293,0-2.354-.045-3.191-.13a9.392,9.392,0,0,1-2.014-.4,2.269,2.269,0,0,1-1.076-.651,1.447,1.447,0,0,1-.312-.919v-27.663a19.31,19.31,0,0,0-.443-4.293,10.553,10.553,0,0,0-1.332-3.316,6.236,6.236,0,0,0-2.3-2.149,6.883,6.883,0,0,0-3.295-.754,7.912,7.912,0,0,0-4.814,1.831,30.571,30.571,0,0,0-5.176,5.33v31.015a1.419,1.419,0,0,1-.318.919,2.277,2.277,0,0,1-1.07.651,9.392,9.392,0,0,1-2.014.4q-1.251.127-3.191.13c-1.287,0-2.354-.045-3.187-.13a9.512,9.512,0,0,1-2.018-.4,2.336,2.336,0,0,1-1.072-.651,1.425,1.425,0,0,1-.312-.919V9138.37a1.6,1.6,0,0,1,.262-.913,1.9,1.9,0,0,1,.941-.651,7.6,7.6,0,0,1,1.752-.4,23.462,23.462,0,0,1,2.693-.13,24.673,24.673,0,0,1,2.771.13,6.368,6.368,0,0,1,1.7.4,1.87,1.87,0,0,1,.863.651,1.6,1.6,0,0,1,.26.913v5.393a30.869,30.869,0,0,1,7.717-6.277,16.571,16.571,0,0,1,8.029-2.092,20.418,20.418,0,0,1,5.176.6,14.652,14.652,0,0,1,4.105,1.724,12.9,12.9,0,0,1,3.113,2.693,15.843,15.843,0,0,1,2.2,3.5,39.214,39.214,0,0,1,4.105-3.866,23.761,23.761,0,0,1,3.975-2.643,18.241,18.241,0,0,1,3.924-1.52,16.263,16.263,0,0,1,4-.493,17.71,17.71,0,0,1,7.848,1.564,13.859,13.859,0,0,1,5.154,4.265,17.133,17.133,0,0,1,2.795,6.3,33.763,33.763,0,0,1,.84,7.632v29.863a1.419,1.419,0,0,1-.318.919,2.254,2.254,0,0,1-1.043.651,8.92,8.92,0,0,1-1.99.4c-.834.085-1.9.13-3.186.13Q22335.078,9187.12,22333.826,9186.99Zm-222.387,0a9.469,9.469,0,0,1-2.014-.4,2.277,2.277,0,0,1-1.07-.651,1.419,1.419,0,0,1-.318-.919V9138.37a1.644,1.644,0,0,1,.262-.913,1.917,1.917,0,0,1,.941-.651,7.6,7.6,0,0,1,1.752-.4,23.549,23.549,0,0,1,2.7-.13,24.772,24.772,0,0,1,2.771.13,6.26,6.26,0,0,1,1.7.4,1.9,1.9,0,0,1,.867.651,1.644,1.644,0,0,1,.262.913v5.807a37.6,37.6,0,0,1,3.447-4.315,19.751,19.751,0,0,1,3.09-2.693,9.65,9.65,0,0,1,2.926-1.383,11.31,11.31,0,0,1,2.932-.392c.453,0,.941.022,1.463.073a14.73,14.73,0,0,1,1.621.267,10.556,10.556,0,0,1,1.463.414,2.909,2.909,0,0,1,.918.5,1.686,1.686,0,0,1,.42.573,4.536,4.536,0,0,1,.232.867,12.6,12.6,0,0,1,.158,1.645c.035.731.053,1.729.053,2.982s-.035,2.284-.1,3.084a9.538,9.538,0,0,1-.316,1.883,1.8,1.8,0,0,1-.551.94,1.355,1.355,0,0,1-.861.262,2.849,2.849,0,0,1-.941-.182c-.346-.119-.742-.25-1.174-.392s-.918-.272-1.439-.392a7.486,7.486,0,0,0-1.725-.181,5.831,5.831,0,0,0-2.2.442,9.242,9.242,0,0,0-2.273,1.383,17.307,17.307,0,0,0-2.461,2.512,41.1,41.1,0,0,0-2.744,3.873v29.075a1.447,1.447,0,0,1-.312.919,2.274,2.274,0,0,1-1.072.651,9.486,9.486,0,0,1-2.018.4c-.834.085-1.9.13-3.187.13S22112.279,9187.075,22111.439,9186.99Z" transform="translate(-22042.438 -9113.578)" fill="#fff"/>
  </g>
</svg>
